<?xml version="1.0" encoding="utf-8"?>
<!-- Generator: Adobe Illustrator 24.3.0, SVG Export Plug-In . SVG Version: 6.00 Build 0)  -->
<svg version="1.1" id="Capa_1" xmlns="http://www.w3.org/2000/svg" x="0px" y="0px"
	 viewBox="0 0 16 16" style="enable-background:new 0 0 16 16;" xml:space="preserve">
<style type="text/css">
	.st0{fill:url(#SVGID_1_);}
</style>
<linearGradient id="SVGID_1_" gradientUnits="userSpaceOnUse" x1="7.224804e-04" y1="8" x2="15.5" y2="8">
	<stop  offset="0" style="stop-color:#7F1D1D"/>
	<stop  offset="1" style="stop-color:#DC2626"/>
</linearGradient>
<path class="st0" d="M3.5,11.5C1.6,11.5,0,9.9,0,8s1.6-3.5,3.5-3.5c1.4,0,2.6,0.8,3.2,2H14L15.5,8L14,9.5l-1-1l-1,1l-1-1l-1,1l-1-1
	l-1,1H6.7C6.1,10.7,4.9,11.5,3.5,11.5z M2.5,9c0.6,0,1-0.4,1-1s-0.4-1-1-1s-1,0.4-1,1S1.9,9,2.5,9z"/>
</svg>
